<?xml version="1.0" encoding="UTF-8"?>
<svg xmlns="http://www.w3.org/2000/svg" xmlns:xlink="http://www.w3.org/1999/xlink" width="256pt" height="256pt" viewBox="0 0 256 256" version="1.1">
<g id="surface1">
<path style=" stroke:none;fill-rule:nonzero;fill:rgb(0%,33.333333%,0%);fill-opacity:1;" d="M 127.976562 0.03125 C 93.605469 0.03125 62.03125 13.128906 37.671875 37.484375 C 13.316406 61.839844 0.21875 93.417969 0.21875 127.789062 C 0.21875 162.160156 13.316406 193.734375 37.671875 218.089844 C 58.125 238.542969 83.6875 251.058594 112.617188 254.78125 C 123.976562 256.246094 141.390625 255.503906 153.804688 253.03125 C 198.496094 244.125 236.679688 209.507812 250.0625 165.765625 C 264.101562 119.871094 252.058594 71.261719 218.28125 37.484375 C 193.921875 13.128906 162.347656 0.03125 127.976562 0.03125 Z M 126.8125 10.050781 C 145.300781 9.882812 163.777344 14.070312 180.617188 22.507812 C 203.695312 34.070312 221.695312 52.066406 233.257812 75.148438 C 249.878906 108.324219 249.878906 147.253906 233.257812 180.429688 C 227.457031 192.003906 221.679688 200.144531 212.476562 209.703125 C 193.003906 229.929688 167.222656 242.261719 138.546875 245.0625 C 117.160156 247.152344 95.089844 242.964844 75.335938 233.066406 C 63.757812 227.269531 55.621094 221.492188 46.0625 212.289062 C 9.191406 176.796875 -0.304688 121.058594 22.695312 75.148438 C 36.523438 47.550781 60.273438 26.671875 89.363281 16.546875 C 101.507812 12.320312 114.164062 10.167969 126.8125 10.050781 Z M 126.8125 10.050781 "/>
<path style=" stroke:none;fill-rule:nonzero;fill:rgb(0%,33.333333%,0%);fill-opacity:1;" d="M 89.441406 101.535156 L 123.234375 117.089844 C 127.675781 119.136719 134.949219 119.136719 139.390625 117.089844 L 167.90625 103.964844 L 214.675781 81.660156 C 213.691406 80.921875 212.6875 80.257812 211.625 79.773438 L 143.449219 48.382812 C 136.785156 45.3125 125.875 45.3125 119.207031 48.382812 L 51.011719 79.773438 C 49.921875 80.273438 48.890625 80.960938 47.886719 81.722656 Z M 89.441406 101.535156 "/>
<path style=" stroke:none;fill-rule:nonzero;fill:rgb(0%,33.333333%,0%);fill-opacity:1;" d="M 128.054688 133.105469 C 128.054688 128.203125 124.421875 122.535156 119.976562 120.484375 L 68.503906 96.800781 C 68.457031 96.785156 68.421875 96.75 68.378906 96.726562 L 45.105469 86.003906 L 45.105469 166.035156 C 45.105469 173.375 50.5625 181.886719 57.230469 184.960938 L 125.425781 216.355469 C 126.03125 216.636719 126.707031 216.859375 127.375 217.085938 L 128.050781 175.417969 L 128.050781 133.105469 Z M 128.054688 133.105469 "/>
<path style=" stroke:none;fill-rule:nonzero;fill:rgb(0%,33.333333%,0%);fill-opacity:1;" d="M 191.960938 96.507812 C 191.867188 96.558594 191.789062 96.625 191.6875 96.671875 L 140.203125 120.367188 C 135.753906 122.410156 132.125 128.089844 132.125 132.984375 L 132.125 167.839844 L 132.226562 167.835938 L 132.066406 217.242188 C 133.027344 216.953125 133.941406 216.609375 134.78125 216.222656 L 202.972656 184.828125 C 209.636719 181.757812 215.097656 173.246094 215.097656 165.902344 L 215.085938 85.835938 Z M 191.960938 96.507812 "/>
</g>
</svg>
